<svg width="20" height="20" viewBox="0 0 20 20" fill="none" xmlns="http://www.w3.org/2000/svg">
<path d="M9.99976 2.16675C11.0284 2.16675 12.0474 2.36977 12.9978 2.76343C13.948 3.15703 14.8115 3.7335 15.5388 4.46069C16.2662 5.18809 16.8434 6.0523 17.2371 7.00269C17.6306 7.95291 17.8337 8.97126 17.8337 9.99976C17.8337 12.0773 17.0079 14.0698 15.5388 15.5388C14.0698 17.0079 12.0773 17.8337 9.99976 17.8337C5.66869 17.8336 2.16675 14.3078 2.16675 9.99976C2.16683 7.92234 2.99174 5.92965 4.46069 4.46069C5.92965 2.99174 7.92234 2.16683 9.99976 2.16675ZM9.99976 2.83374C8.09915 2.83383 6.27631 3.58844 4.93237 4.93237C3.58844 6.27631 2.83383 8.09915 2.83374 9.99976C2.83374 11.9005 3.58836 13.7241 4.93237 15.0681C6.27629 16.4119 8.09923 17.1667 9.99976 17.1667C11.9005 17.1667 13.7241 16.4121 15.0681 15.0681C16.4121 13.7241 17.1667 11.9005 17.1667 9.99976C17.1667 8.09923 16.4119 6.27629 15.0681 4.93237C13.7241 3.58836 11.9005 2.83374 9.99976 2.83374ZM9.91675 6.33374V10.4929L10.1619 10.6384L13.4763 12.6042L13.3728 12.7742L9.66675 10.5505V6.33374H9.91675Z" fill="#BDBDBD" stroke="#BDBDBD"/>
</svg>
