<svg width="18" height="24" viewBox="0 0 18 24" fill="none" xmlns="http://www.w3.org/2000/svg">
<g clip-path="url(#clip0_3090_5226)">
<path d="M5.27344 17.7786C5.96229 18.6632 6.58928 19.595 7.14987 20.5672C7.62847 21.4815 7.82799 22.1015 8.17775 23.2033C8.39226 23.8119 8.58613 23.9936 9.00294 23.9936C9.45714 23.9936 9.66321 23.6846 9.82242 23.2066C10.153 22.1662 10.4125 21.3721 10.8217 20.6218C11.6249 19.1733 12.6228 17.8862 13.6034 16.6491C13.8688 16.299 15.5852 14.2592 16.3578 12.6498C16.3578 12.6498 17.3075 10.8818 17.3075 8.41271C17.3075 6.10309 16.371 4.50124 16.371 4.50124L13.6745 5.22882L12.037 9.57439L11.6319 10.1736L11.5509 10.2822L11.4431 10.4181L11.254 10.6351L10.9837 10.9073L9.52555 12.1043L5.8799 14.2252L5.27344 17.7786Z" fill="#34A853"/>
<path d="M1.51123 12.3526C2.401 14.4004 4.1168 16.2004 5.27767 17.7801L11.4436 10.4209C11.4436 10.4209 10.5749 11.5656 8.99919 11.5656C7.24399 11.5656 5.82604 10.1534 5.82604 8.37269C5.82604 7.15157 6.55517 6.31268 6.55517 6.31268L2.36958 7.44271L1.51123 12.3526Z" fill="#FBBC04"/>
<path d="M11.5121 0.378494C13.5599 1.04376 15.3127 2.4404 16.3729 4.49989L11.4451 10.4167C11.4451 10.4167 12.1742 9.56265 12.1742 8.34911C12.1742 6.52694 10.6514 5.16568 9.00628 5.16568C7.4506 5.16568 6.55713 6.30846 6.55713 6.30846V2.58094L11.5121 0.378494Z" fill="#4285F4"/>
<path d="M2.64062 2.99281C3.86374 1.51834 6.01595 0 8.98309 0C10.4227 0 11.5072 0.380796 11.5072 0.380796L6.5527 6.31167H3.04238L2.64062 2.99281Z" fill="#1A73E8"/>
<path d="M1.51095 12.3526C1.51095 12.3526 0.692383 10.7375 0.692383 8.39762C0.692383 6.18616 1.54561 4.25308 2.64047 2.99278L6.55534 6.31217L1.51095 12.3526Z" fill="#EA4335"/>
</g>
<defs>
<clipPath id="clip0_3090_5226">
<rect width="16.6154" height="24" fill="white" transform="translate(0.692383)"/>
</clipPath>
</defs>
</svg>
