<svg width="24" height="24" viewBox="0 0 24 24" fill="none" xmlns="http://www.w3.org/2000/svg">
<path fill-rule="evenodd" clip-rule="evenodd" d="M10.1169 22.0862H5.00865C3.35229 22.0814 2.0101 20.8148 1.99988 19.2459V9.62051C1.99988 9.09552 2.25019 8.59955 2.67417 8.26447L3.57706 7.6306C3.90654 7.30036 3.93591 6.79471 3.65624 6.42576C3.37273 6.05802 2.85296 5.93464 2.42004 6.12818L1.50183 6.7802C0.568294 7.46125 0.020433 8.50519 0 9.62051V19.2556C0.00510826 21.8733 2.24508 23.9951 5.00865 23.9999H10.1169C10.6699 23.9999 11.1143 23.5741 11.1143 23.0552C11.1143 22.5302 10.6699 22.1056 10.1169 22.1056V22.0862Z" fill="#303030"/>
<path fill-rule="evenodd" clip-rule="evenodd" d="M24 9.59786C23.9846 8.49584 23.4508 7.4519 22.5428 6.75754L14.8715 0.964413C13.1845 -0.321471 10.7798 -0.321471 9.09407 0.964413L6.6651 2.63739C6.20535 2.94828 6.10063 3.54949 6.43012 3.98376C6.7596 4.41319 7.39302 4.51239 7.85149 4.2015L10.3162 2.45715C11.2842 1.7011 12.6813 1.7011 13.6494 2.45715L21.3207 8.25028C21.7651 8.58657 22.0244 9.08738 22.0346 9.62084V19.2559C22.0346 20.8248 20.6873 22.0962 19.036 22.0962H16.7565C16.5228 22.0962 16.3376 21.916 16.3376 21.6946V17.3519C16.3376 15.9668 15.155 14.8418 13.6941 14.8382H10.3609C9.65726 14.8382 8.98425 15.1019 8.48619 15.5749C7.98686 16.0478 7.70718 16.6853 7.70718 17.3519V19.0152C7.70718 19.5341 8.15671 19.9599 8.70457 19.9599C9.25882 19.9599 9.70834 19.5341 9.70834 19.0152V17.3519C9.70323 17.1861 9.76709 17.0301 9.89224 16.9115C10.0123 16.799 10.177 16.7325 10.3507 16.7325H13.6838C14.0376 16.7325 14.3275 17.0071 14.3275 17.3422V21.6946C14.3326 22.9648 15.4194 23.9906 16.7565 23.9906H18.976C21.7447 23.9906 23.9846 21.864 23.9846 19.2462L24 9.59786Z" fill="#303030"/>
</svg>
