<svg width="24" height="24" viewBox="0 0 24 24" fill="none" xmlns="http://www.w3.org/2000/svg">
<path d="M12 1.25H11.943C9.634 1.25 7.825 1.25 6.413 1.44C4.969 1.634 3.829 2.04 2.934 2.934C2.039 3.829 1.634 4.969 1.44 6.414C1.25 7.825 1.25 9.634 1.25 11.943V12.057C1.25 14.366 1.25 16.175 1.44 17.587C1.634 19.031 2.04 20.171 2.934 21.066C3.829 21.961 4.969 22.366 6.414 22.56C7.825 22.75 9.634 22.75 11.943 22.75H12.057C14.366 22.75 16.175 22.75 17.587 22.56C19.031 22.366 20.171 21.96 21.066 21.066C21.961 20.171 22.366 19.031 22.56 17.586C22.75 16.175 22.75 14.366 22.75 12.057V12C22.75 11.8011 22.671 11.6103 22.5303 11.4697C22.3897 11.329 22.1989 11.25 22 11.25C21.8011 11.25 21.6103 11.329 21.4697 11.4697C21.329 11.6103 21.25 11.8011 21.25 12C21.25 14.378 21.248 16.086 21.074 17.386C20.902 18.665 20.574 19.436 20.005 20.006C19.435 20.575 18.665 20.902 17.386 21.074C16.086 21.248 14.378 21.25 12 21.25C9.622 21.25 7.914 21.248 6.614 21.074C5.335 20.902 4.564 20.574 3.994 20.005C3.425 19.435 3.098 18.665 2.926 17.386C2.752 16.086 2.75 14.378 2.75 12C2.75 9.622 2.752 7.914 2.926 6.614C3.098 5.335 3.426 4.564 3.995 3.994C4.565 3.425 5.335 3.098 6.614 2.926C7.914 2.752 9.622 2.75 12 2.75C12.1989 2.75 12.3897 2.67098 12.5303 2.53033C12.671 2.38968 12.75 2.19891 12.75 2C12.75 1.80109 12.671 1.61032 12.5303 1.46967C12.3897 1.32902 12.1989 1.25 12 1.25Z" fill="#00A0DC"/>
<path d="M21.53 3.53C21.6625 3.38782 21.7346 3.19978 21.7312 3.00548C21.7277 2.81118 21.649 2.62579 21.5116 2.48838C21.3742 2.35096 21.1888 2.27225 20.9945 2.26882C20.8002 2.2654 20.6122 2.33752 20.47 2.47L12.75 10.19V6.655C12.75 6.45609 12.671 6.26532 12.5303 6.12467C12.3897 5.98402 12.1989 5.905 12 5.905C11.8011 5.905 11.6103 5.98402 11.4697 6.12467C11.329 6.26532 11.25 6.45609 11.25 6.655V12C11.25 12.414 11.586 12.75 12 12.75H17.344C17.5429 12.75 17.7337 12.671 17.8743 12.5303C18.015 12.3897 18.094 12.1989 18.094 12C18.094 11.8011 18.015 11.6103 17.8743 11.4697C17.7337 11.329 17.5429 11.25 17.344 11.25H13.81L21.53 3.53Z" fill="#00A0DC"/>
</svg>
