<svg width="25" height="24" viewBox="0 0 25 24" fill="none" xmlns="http://www.w3.org/2000/svg">
<g clip-path="url(#clip0_3163_8274)">
<path d="M20.4999 14C20.7547 14.0003 20.9999 14.0979 21.1852 14.2729C21.3706 14.4478 21.4821 14.687 21.497 14.9414C21.512 15.1959 21.4292 15.4464 21.2656 15.6418C21.102 15.8373 20.87 15.9629 20.6169 15.993L20.4999 16H6.91387L9.20687 18.293C9.38622 18.473 9.49034 18.7144 9.4981 18.9684C9.50585 19.2223 9.41665 19.4697 9.24862 19.6603C9.08059 19.8509 8.84632 19.9703 8.59339 19.9944C8.34047 20.0185 8.08786 19.9454 7.88687 19.79L7.79287 19.707L3.96287 15.877C3.29787 15.213 3.72387 14.094 4.62587 14.006L4.74087 14H20.4999ZM15.7929 4.29301C15.9651 4.12084 16.1942 4.01741 16.4372 4.00212C16.6802 3.98684 16.9205 4.06076 17.1129 4.21001L17.2069 4.29301L21.0369 8.12301C21.7019 8.78701 21.2759 9.90601 20.3739 9.99401L20.2589 10H4.49987C4.24499 9.99973 3.99984 9.90213 3.8145 9.72717C3.62916 9.5522 3.51763 9.31306 3.5027 9.05862C3.48776 8.80418 3.57054 8.55363 3.73413 8.35818C3.89772 8.16273 4.12977 8.03712 4.38287 8.00701L4.49987 8.00001H18.0859L15.7929 5.70701C15.6054 5.51949 15.5001 5.26518 15.5001 5.00001C15.5001 4.73485 15.6054 4.48054 15.7929 4.29301Z" fill="#00A0DC"/>
</g>
<defs>
<clipPath id="clip0_3163_8274">
<rect width="24" height="24" fill="white" transform="translate(0.5)"/>
</clipPath>
</defs>
</svg>
