<svg width="180" height="154" viewBox="0 0 180 154" fill="none" xmlns="http://www.w3.org/2000/svg">
<path d="M98.3516 37.8257C101.287 37.8257 103.667 40.8557 103.667 44.5933C103.667 48.3308 101.287 51.3608 98.3516 51.3608H146.944C149.88 51.3608 152.26 54.3909 152.26 58.1284C152.26 61.8658 149.88 64.895 146.944 64.895H163.648C166.584 64.8951 168.963 67.9253 168.963 71.6626C168.963 75.4001 166.584 78.43 163.648 78.4302H149.223C146.287 78.4302 143.907 81.4602 143.907 85.1978C143.907 88.9353 146.287 91.9653 149.223 91.9653H153.778C156.713 91.9656 159.093 94.9955 159.093 98.7329C159.093 102.47 156.713 105.5 153.778 105.5H114.296C113.905 105.5 113.524 105.446 113.157 105.344C112.79 105.446 112.409 105.5 112.019 105.5H42.9258C39.9906 105.5 37.6114 102.47 37.6113 98.7329C37.6113 94.9954 39.9906 91.9654 42.9258 91.9653H13.3145C10.3793 91.9651 8 88.9352 8 85.1978C8 81.4604 10.3793 78.4304 13.3145 78.4302H43.6855C46.6207 78.4299 49 75.4 49 71.6626C48.9999 67.9253 46.6206 64.8953 43.6855 64.895H24.7041C21.7689 64.895 19.3889 61.8658 19.3887 58.1284C19.3887 54.3909 21.7688 51.3608 24.7041 51.3608H55.0742C52.139 51.3608 49.7598 48.3308 49.7598 44.5933C49.7598 40.8557 52.1389 37.8257 55.0742 37.8257H98.3516ZM166.686 91.9653C169.621 91.9656 172 94.9955 172 98.7329C172 102.47 169.621 105.5 166.686 105.5C163.75 105.5 161.37 102.47 161.37 98.7329C161.37 94.9954 163.75 91.9653 166.686 91.9653Z" fill="#095BA8" fill-opacity="0.08"/>
<path d="M77.65 74.5L80.9 60.45L70 51L84.4 49.75L90 36.5L95.6 49.75L110 51L99.1 60.45L102.35 74.5L90 67.05L77.65 74.5Z" fill="url(#paint0_linear_241_5911)"/>
<path d="M45.908 134.5H43.948L39.51 127.794V134.5H37.55V124.714H39.51L43.948 131.434V124.714H45.908V134.5ZM51.2889 134.626C50.5422 134.626 49.8702 134.463 49.2729 134.136C48.6756 133.8 48.2042 133.329 47.8589 132.722C47.5229 132.115 47.3549 131.415 47.3549 130.622C47.3549 129.829 47.5276 129.129 47.8729 128.522C48.2276 127.915 48.7082 127.449 49.3149 127.122C49.9216 126.786 50.5982 126.618 51.3449 126.618C52.0916 126.618 52.7682 126.786 53.3749 127.122C53.9816 127.449 54.4576 127.915 54.8029 128.522C55.1576 129.129 55.3349 129.829 55.3349 130.622C55.3349 131.415 55.1529 132.115 54.7889 132.722C54.4342 133.329 53.9489 133.8 53.3329 134.136C52.7262 134.463 52.0449 134.626 51.2889 134.626ZM51.2889 132.918C51.6436 132.918 51.9749 132.834 52.2829 132.666C52.6002 132.489 52.8522 132.227 53.0389 131.882C53.2256 131.537 53.3189 131.117 53.3189 130.622C53.3189 129.885 53.1229 129.32 52.7309 128.928C52.3482 128.527 51.8769 128.326 51.3169 128.326C50.7569 128.326 50.2856 128.527 49.9029 128.928C49.5296 129.32 49.3429 129.885 49.3429 130.622C49.3429 131.359 49.5249 131.929 49.8889 132.33C50.2622 132.722 50.7289 132.918 51.2889 132.918ZM65.1486 134.5L62.9926 130.692H62.0686V134.5H60.1086V124.728H63.7766C64.5326 124.728 65.1766 124.863 65.7086 125.134C66.2406 125.395 66.6372 125.755 66.8986 126.212C67.1692 126.66 67.3046 127.164 67.3046 127.724C67.3046 128.368 67.1179 128.951 66.7446 129.474C66.3712 129.987 65.8159 130.342 65.0786 130.538L67.4166 134.5H65.1486ZM62.0686 129.222H63.7066C64.2386 129.222 64.6352 129.096 64.8966 128.844C65.1579 128.583 65.2886 128.223 65.2886 127.766C65.2886 127.318 65.1579 126.973 64.8966 126.73C64.6352 126.478 64.2386 126.352 63.7066 126.352H62.0686V129.222ZM76.2873 130.454C76.2873 130.734 76.2687 130.986 76.2313 131.21H70.5613C70.608 131.77 70.804 132.209 71.1493 132.526C71.4947 132.843 71.9193 133.002 72.4233 133.002C73.1513 133.002 73.6693 132.689 73.9773 132.064H76.0913C75.8673 132.811 75.438 133.427 74.8033 133.912C74.1687 134.388 73.3893 134.626 72.4653 134.626C71.7187 134.626 71.0467 134.463 70.4493 134.136C69.8613 133.8 69.3993 133.329 69.0633 132.722C68.7367 132.115 68.5733 131.415 68.5733 130.622C68.5733 129.819 68.7367 129.115 69.0633 128.508C69.39 127.901 69.8473 127.435 70.4353 127.108C71.0233 126.781 71.7 126.618 72.4653 126.618C73.2027 126.618 73.8607 126.777 74.4393 127.094C75.0273 127.411 75.48 127.864 75.7973 128.452C76.124 129.031 76.2873 129.698 76.2873 130.454ZM74.2573 129.894C74.248 129.39 74.066 128.989 73.7113 128.69C73.3567 128.382 72.9227 128.228 72.4093 128.228C71.924 128.228 71.5133 128.377 71.1773 128.676C70.8507 128.965 70.65 129.371 70.5753 129.894H74.2573ZM80.952 132.694L82.912 126.744H84.998L82.128 134.5H79.748L76.892 126.744H78.992L80.952 132.694ZM87.0928 125.82C86.7475 125.82 86.4581 125.713 86.2248 125.498C86.0008 125.274 85.8888 124.999 85.8888 124.672C85.8888 124.345 86.0008 124.075 86.2248 123.86C86.4581 123.636 86.7475 123.524 87.0928 123.524C87.4381 123.524 87.7228 123.636 87.9468 123.86C88.1801 124.075 88.2968 124.345 88.2968 124.672C88.2968 124.999 88.1801 125.274 87.9468 125.498C87.7228 125.713 87.4381 125.82 87.0928 125.82ZM88.0588 126.744V134.5H86.0988V126.744H88.0588ZM97.2053 130.454C97.2053 130.734 97.1866 130.986 97.1493 131.21H91.4793C91.526 131.77 91.722 132.209 92.0673 132.526C92.4126 132.843 92.8373 133.002 93.3413 133.002C94.0693 133.002 94.5873 132.689 94.8953 132.064H97.0093C96.7853 132.811 96.356 133.427 95.7213 133.912C95.0866 134.388 94.3073 134.626 93.3833 134.626C92.6366 134.626 91.9646 134.463 91.3673 134.136C90.7793 133.8 90.3173 133.329 89.9813 132.722C89.6546 132.115 89.4913 131.415 89.4913 130.622C89.4913 129.819 89.6546 129.115 89.9813 128.508C90.308 127.901 90.7653 127.435 91.3533 127.108C91.9413 126.781 92.618 126.618 93.3833 126.618C94.1206 126.618 94.7786 126.777 95.3573 127.094C95.9453 127.411 96.398 127.864 96.7153 128.452C97.042 129.031 97.2053 129.698 97.2053 130.454ZM95.1753 129.894C95.166 129.39 94.984 128.989 94.6293 128.69C94.2746 128.382 93.8406 128.228 93.3273 128.228C92.842 128.228 92.4313 128.377 92.0953 128.676C91.7686 128.965 91.568 129.371 91.4933 129.894H95.1753ZM109.388 126.744L107.12 134.5H105.006L103.592 129.082L102.178 134.5H100.05L97.7679 126.744H99.7559L101.128 132.652L102.612 126.744H104.684L106.14 132.638L107.512 126.744H109.388ZM113.416 134.626C112.782 134.626 112.212 134.514 111.708 134.29C111.204 134.057 110.803 133.744 110.504 133.352C110.215 132.96 110.056 132.526 110.028 132.05H112.002C112.04 132.349 112.184 132.596 112.436 132.792C112.698 132.988 113.02 133.086 113.402 133.086C113.776 133.086 114.065 133.011 114.27 132.862C114.485 132.713 114.592 132.521 114.592 132.288C114.592 132.036 114.462 131.849 114.2 131.728C113.948 131.597 113.542 131.457 112.982 131.308C112.404 131.168 111.928 131.023 111.554 130.874C111.19 130.725 110.873 130.496 110.602 130.188C110.341 129.88 110.21 129.465 110.21 128.942C110.21 128.513 110.332 128.121 110.574 127.766C110.826 127.411 111.181 127.131 111.638 126.926C112.105 126.721 112.651 126.618 113.276 126.618C114.2 126.618 114.938 126.851 115.488 127.318C116.039 127.775 116.342 128.396 116.398 129.18H114.522C114.494 128.872 114.364 128.629 114.13 128.452C113.906 128.265 113.603 128.172 113.22 128.172C112.866 128.172 112.59 128.237 112.394 128.368C112.208 128.499 112.114 128.681 112.114 128.914C112.114 129.175 112.245 129.376 112.506 129.516C112.768 129.647 113.174 129.782 113.724 129.922C114.284 130.062 114.746 130.207 115.11 130.356C115.474 130.505 115.787 130.739 116.048 131.056C116.319 131.364 116.459 131.775 116.468 132.288C116.468 132.736 116.342 133.137 116.09 133.492C115.848 133.847 115.493 134.127 115.026 134.332C114.569 134.528 114.032 134.626 113.416 134.626ZM129.183 124.728L125.879 131.098V134.5H123.919V131.098L120.601 124.728H122.813L124.913 129.194L126.999 124.728H129.183ZM137.524 130.454C137.524 130.734 137.505 130.986 137.468 131.21H131.798C131.844 131.77 132.04 132.209 132.386 132.526C132.731 132.843 133.156 133.002 133.66 133.002C134.388 133.002 134.906 132.689 135.214 132.064H137.328C137.104 132.811 136.674 133.427 136.04 133.912C135.405 134.388 134.626 134.626 133.702 134.626C132.955 134.626 132.283 134.463 131.686 134.136C131.098 133.8 130.636 133.329 130.3 132.722C129.973 132.115 129.81 131.415 129.81 130.622C129.81 129.819 129.973 129.115 130.3 128.508C130.626 127.901 131.084 127.435 131.672 127.108C132.26 126.781 132.936 126.618 133.702 126.618C134.439 126.618 135.097 126.777 135.676 127.094C136.264 127.411 136.716 127.864 137.034 128.452C137.36 129.031 137.524 129.698 137.524 130.454ZM135.494 129.894C135.484 129.39 135.302 128.989 134.948 128.69C134.593 128.382 134.159 128.228 133.646 128.228C133.16 128.228 132.75 128.377 132.414 128.676C132.087 128.965 131.886 129.371 131.812 129.894H135.494ZM141.236 128.354V132.106C141.236 132.367 141.297 132.559 141.418 132.68C141.549 132.792 141.764 132.848 142.062 132.848H142.972V134.5H141.74C140.088 134.5 139.262 133.697 139.262 132.092V128.354H138.338V126.744H139.262V124.826H141.236V126.744H142.972V128.354H141.236Z" fill="#303030"/>
<defs>
<linearGradient id="paint0_linear_241_5911" x1="71.9626" y1="37.3471" x2="110.578" y2="40.6752" gradientUnits="userSpaceOnUse">
<stop stop-color="#095BA8"/>
<stop offset="1" stop-color="#00A0DC"/>
</linearGradient>
</defs>
</svg>
