<svg width="24" height="24" viewBox="0 0 24 24" fill="none" xmlns="http://www.w3.org/2000/svg">
<path d="M7.28604 18.1528C7.19648 18.0289 7.11105 17.9112 7.03392 17.7883C6.93479 17.6303 6.84232 17.4682 6.73941 17.2951C6.65608 17.1214 6.57576 16.9624 6.5057 16.7991C6.41856 16.5959 6.3399 16.3891 6.25758 16.1839C6.21393 15.9765 6.15679 15.7708 6.12953 15.5613C6.07884 15.1716 6.04557 14.7797 6.0031 14.3772C6.00255 14.1961 5.99393 14.0257 6.00807 13.8572C6.02326 13.6763 6.05124 13.4954 6.08897 13.3177C6.15331 13.0147 6.20895 12.7074 6.30519 12.4141C6.50941 11.7916 6.79966 11.2079 7.19405 10.6821C8.21442 9.32175 9.23936 7.96487 10.2627 6.60676C10.2795 6.58437 10.2988 6.56382 10.3248 6.53324C10.7185 7.0625 11.1061 7.58358 11.5043 8.11632C11.5404 8.16467 11.5658 8.20135 11.5911 8.23791C11.5593 8.28087 11.5326 8.31766 11.5052 8.3539C10.6623 9.46818 9.82072 10.5835 8.97582 11.6963C8.45501 12.3822 8.123 13.1418 8.06201 14.0078C8.01761 14.6383 8.09149 15.2523 8.34086 15.8473C8.35159 15.8742 8.36126 15.8929 8.37151 15.9211C8.3851 15.9584 8.39812 15.9864 8.41309 16.0222C8.5267 16.2321 8.62548 16.4428 8.75253 16.6348C9.07648 17.1243 9.4843 17.5315 9.99637 17.8404C10.6548 18.2533 11.3653 18.4663 12.1476 18.4752C12.7473 18.4816 13.3173 18.3811 13.8505 18.132C15.3677 17.4231 16.1991 16.2262 16.3403 14.5588C16.3779 14.115 16.3308 13.6731 16.1979 13.2345C16.0075 12.4853 15.5834 11.8775 15.1071 11.2893C15.0345 11.1959 14.962 11.1128 14.8959 11.025C14.4701 10.4591 14.0458 9.89215 13.6171 9.31764C13.5518 9.23253 13.489 9.15631 13.429 9.07796C13.2424 8.83446 13.0566 8.59041 12.8712 8.34609C12.627 8.0244 12.3835 7.70225 12.1396 7.3803C11.8306 6.96768 11.5217 6.55498 11.2125 6.1425C11.1154 6.01298 11.0176 5.88404 10.9135 5.74618C11.3503 5.16886 11.7874 4.59104 12.2345 4C12.5344 4.39523 12.8253 4.77871 13.1238 5.1661C13.472 5.62354 13.8127 6.07707 14.1603 6.5365C14.5224 7.01474 14.8779 7.48708 15.2408 7.96364C15.3999 8.17211 15.5505 8.37708 15.7033 8.58044C15.8643 8.79478 16.0274 9.00758 16.1963 9.2263C16.485 9.60709 16.767 9.98262 17.0589 10.371C17.3264 10.7893 17.5839 11.1947 17.8423 11.6092C18.0965 12.1441 18.2632 12.698 18.378 13.2688C18.5073 14.0779 18.5034 14.8845 18.3175 15.6849C18.2584 15.9391 18.1759 16.188 18.1022 16.4495C17.7631 17.3624 17.2567 18.1554 16.5611 18.8244C16.1834 19.1876 15.7721 19.5068 15.3042 19.7623C14.7552 20.0713 14.1817 20.3061 13.5733 20.4339C13.0099 20.5523 12.4362 20.6026 11.8583 20.5602C11.7592 20.5529 11.6601 20.545 11.5496 20.5386C11.1872 20.4671 10.8272 20.4228 10.4876 20.3145C10.0846 20.186 9.69915 20.0025 9.29825 19.84C8.82821 19.5819 8.40086 19.2778 8.00402 18.9178C7.7628 18.6615 7.52832 18.4091 7.28604 18.1528Z" fill="#737373"/>
<path d="M13.3156 13.5334C13.6242 13.9674 13.7011 14.428 13.4942 14.9161C13.1966 15.6179 12.4084 15.9166 11.672 15.6123C11.2958 15.4303 11.0564 15.1382 10.9432 14.7494C10.7654 14.1387 11.0374 13.4972 11.5932 13.1892C12.1466 12.8824 12.8319 12.9987 13.2597 13.4719C13.2763 13.4903 13.2924 13.5093 13.3156 13.5334Z" fill="#737373"/>
</svg>
