<svg width="24" height="24" viewBox="0 0 24 24" fill="none" xmlns="http://www.w3.org/2000/svg">
<path fill-rule="evenodd" clip-rule="evenodd" d="M3.4305 3.489L4.038 3H5.0535V7.5H3.9915V4.188L3.4305 4.6095V3.489ZM7.5 4.5H22.5V6H7.5V4.5ZM7.5 10.5H22.5V12H7.5V10.5ZM22.5 16.5H7.5V18H22.5V16.5ZM5.613 11.439L5.6565 11.3805L5.754 11.2455C5.9121 11.0239 5.99419 10.7571 5.988 10.485C5.988 10.303 5.9595 10.126 5.9025 9.954C5.84532 9.77565 5.74955 9.61209 5.622 9.47494C5.49444 9.3378 5.33824 9.23044 5.1645 9.1605C4.94968 9.07224 4.71864 9.03033 4.4865 9.0375C4.25081 9.03142 4.01655 9.07592 3.7995 9.168C3.63151 9.24081 3.48073 9.34815 3.35694 9.48305C3.23315 9.61795 3.13913 9.77739 3.081 9.951C3.02756 10.107 3.00019 10.2706 3 10.4355V10.5105H4.215V10.4355C4.21574 10.3521 4.23963 10.2706 4.284 10.2C4.30687 10.1676 4.33593 10.1401 4.3695 10.119C4.40947 10.0987 4.45367 10.0881 4.4985 10.0881C4.54333 10.0881 4.58753 10.0987 4.6275 10.119C4.66142 10.1429 4.69002 10.1735 4.7115 10.209C4.7357 10.2456 4.75157 10.2871 4.758 10.3305C4.78889 10.4775 4.76989 10.6305 4.704 10.7655C4.65175 10.8614 4.59154 10.9527 4.524 11.0385L3.024 12.7455L3.006 12.765V13.575H5.988V12.525H4.638L5.613 11.439ZM5.5575 17.1645C5.6265 17.2125 5.6865 17.2695 5.7375 17.3355C5.91542 17.5725 6.00411 17.8646 5.988 18.1605C5.988 18.3225 5.963 18.4795 5.913 18.6315C5.85582 18.8036 5.76038 18.9605 5.63386 19.0904C5.50733 19.2203 5.35302 19.3198 5.1825 19.3815C4.95209 19.466 4.70782 19.5062 4.4625 19.5C4.2885 19.5 4.118 19.4755 3.951 19.4265C3.81383 19.3838 3.6835 19.3217 3.564 19.242C3.45945 19.1686 3.36729 19.079 3.291 18.9765C3.2216 18.8836 3.16321 18.7829 3.117 18.6765C3.0425 18.4992 3.00278 18.3093 3 18.117V18.0435H4.221V18.117C4.221 18.158 4.2255 18.199 4.2345 18.24C4.24189 18.2796 4.25719 18.3174 4.2795 18.351C4.2985 18.3837 4.32596 18.4106 4.359 18.429C4.39541 18.4468 4.43505 18.457 4.47552 18.4591C4.516 18.4612 4.55647 18.455 4.5945 18.441C4.62564 18.4265 4.65406 18.4067 4.6785 18.3825C4.70741 18.35 4.7289 18.3116 4.7415 18.27C4.76002 18.2088 4.76863 18.145 4.767 18.081C4.76957 17.9982 4.75842 17.9156 4.734 17.8365C4.71849 17.7909 4.69226 17.7498 4.6575 17.7165C4.63144 17.695 4.60056 17.68 4.5675 17.673L4.452 17.6625H4.2105V16.695H4.4625C4.4977 16.6956 4.53274 16.69 4.566 16.6785C4.60137 16.6677 4.63442 16.6504 4.6635 16.6275C4.69422 16.5994 4.71874 16.5651 4.7355 16.527C4.7584 16.4693 4.76913 16.4075 4.767 16.3455C4.76756 16.2945 4.75944 16.2438 4.743 16.1955C4.73054 16.1619 4.71114 16.1313 4.68607 16.1057C4.661 16.0802 4.63082 16.0601 4.5975 16.047C4.55979 16.033 4.51963 16.0267 4.47943 16.0285C4.43923 16.0303 4.39981 16.0401 4.3635 16.0575C4.33115 16.0785 4.30314 16.1054 4.281 16.137C4.24255 16.2091 4.22197 16.2893 4.221 16.371V16.4445H3V16.371C3.00848 16.0785 3.10233 15.7948 3.27 15.555C3.34381 15.4481 3.43449 15.3539 3.5385 15.276C3.65769 15.1884 3.79046 15.121 3.9315 15.0765C4.1035 15.0225 4.2805 14.997 4.4625 15C4.6365 14.998 4.8085 15.016 4.9785 15.054C5.1165 15.086 5.248 15.136 5.373 15.204C5.57759 15.3108 5.74497 15.4771 5.853 15.681C5.94242 15.8398 5.98894 16.0192 5.988 16.2015C6.00145 16.4869 5.91263 16.7677 5.7375 16.9935C5.68569 17.0585 5.62511 17.1161 5.5575 17.1645Z" fill="#737373"/>
</svg>
