<svg width="12" height="21" viewBox="0 0 12 21" fill="none" xmlns="http://www.w3.org/2000/svg">
<path d="M4 4H8V2C8 1.73478 7.89464 1.48043 7.70711 1.29289C7.51957 1.10536 7.26522 1 7 1H5C4.73478 1 4.48043 1.10536 4.29289 1.29289C4.10536 1.48043 4 1.73478 4 2V4Z" stroke="#095BA8" stroke-width="2" stroke-linecap="round" stroke-linejoin="round"/>
<path d="M8 2.5C8 4.126 8.507 5.712 9.45 7.037L9.5 7.107C10.4754 8.47791 10.9996 10.1185 11 11.801V18C11 18.5304 10.7893 19.0391 10.4142 19.4142C10.0391 19.7893 9.53043 20 9 20H3C2.46957 20 1.96086 19.7893 1.58579 19.4142C1.21071 19.0391 1 18.5304 1 18V11.8C1 10.118 1.524 8.478 2.5 7.107L2.55 7.037C3.49335 5.71224 4.0002 4.12632 4 2.5" stroke="#095BA8" stroke-width="2" stroke-linecap="round" stroke-linejoin="round"/>
<path d="M1 13.803C1.4 13.631 1.74568 13.3534 2 13C2.22717 12.6835 2.52797 12.4271 2.87642 12.2528C3.22488 12.0786 3.6105 11.9918 4 12C4.3895 11.9918 4.77512 12.0786 5.12358 12.2528C5.47203 12.4271 5.77283 12.6835 6 13C6.22717 13.3165 6.52797 13.5729 6.87642 13.7471C7.22488 13.9214 7.6105 14.0081 8 14C8.3895 14.0081 8.77512 13.9214 9.12358 13.7471C9.47203 13.5729 9.77283 13.3165 10 13C10.2541 12.6458 10.5998 12.3675 11 12.195" stroke="#095BA8" stroke-width="2" stroke-linecap="round" stroke-linejoin="round"/>
</svg>
