<svg width="24" height="24" viewBox="0 0 24 24" fill="none" xmlns="http://www.w3.org/2000/svg">
<path d="M9.79692 17.9999H8.06254C7.71444 17.9999 7.3806 17.8616 7.13446 17.6154C6.88832 17.3693 6.75004 17.0355 6.75004 16.6874V7.12486C7.3278 6.80504 7.7839 6.30351 8.04758 5.69806C8.31127 5.09261 8.36782 4.41708 8.20846 3.77621C8.0491 3.13535 7.68273 2.56498 7.16618 2.15355C6.64963 1.74212 6.01176 1.51263 5.35149 1.50066C4.69122 1.48869 4.04545 1.69492 3.51432 2.08736C2.9832 2.4798 2.59641 3.03652 2.41393 3.67119C2.23145 4.30585 2.26348 4.983 2.50505 5.5976C2.74663 6.21221 3.18425 6.72994 3.75004 7.07049V16.6874C3.75128 17.8307 4.20603 18.9269 5.01451 19.7354C5.82299 20.5439 6.91918 20.9986 8.06254 20.9999H9.79692V23.5878L13.7996 19.4999L9.79692 15.4119V17.9999ZM5.29692 2.99986C5.59359 2.99986 5.8836 3.08784 6.13027 3.25266C6.37694 3.41748 6.5692 3.65175 6.68273 3.92584C6.79627 4.19993 6.82597 4.50153 6.76809 4.7925C6.71022 5.08347 6.56735 5.35074 6.35757 5.56052C6.1478 5.7703 5.88052 5.91316 5.58955 5.97104C5.29858 6.02892 4.99698 5.99921 4.72289 5.88568C4.4488 5.77215 4.21453 5.57989 4.04971 5.33322C3.88489 5.08654 3.79691 4.79654 3.79691 4.49986C3.79691 4.10204 3.95495 3.72051 4.23625 3.4392C4.51756 3.1579 4.89909 2.99986 5.29692 2.99986ZM20.25 16.9035V7.31236C20.2488 6.169 19.7941 5.07282 18.9856 4.26434C18.1771 3.45585 17.0809 3.0011 15.9375 2.99986H14.2969V0.465332L10.1785 4.49986L14.2969 8.5344V5.99986H15.9375C16.2856 5.99986 16.6195 6.13814 16.8656 6.38429C17.1118 6.63043 17.25 6.96427 17.25 7.31236V16.9035C16.6781 17.2337 16.2311 17.7434 15.9784 18.3535C15.7257 18.9636 15.6813 19.6401 15.8523 20.278C16.0232 20.9159 16.3998 21.4796 16.9238 21.8816C17.4477 22.2836 18.0896 22.5015 18.75 22.5015C19.4104 22.5015 20.0524 22.2836 20.5763 21.8816C21.1003 21.4796 21.4769 20.9159 21.6478 20.278C21.8187 19.6401 21.7744 18.9636 21.5217 18.3535C21.269 17.7434 20.822 17.2337 20.25 16.9035ZM18.75 20.9999C18.4534 20.9999 18.1634 20.9119 17.9167 20.7471C17.67 20.5822 17.4778 20.348 17.3642 20.0739C17.2507 19.7998 17.221 19.4982 17.2789 19.2072C17.3367 18.9163 17.4796 18.649 17.6894 18.4392C17.8992 18.2294 18.1664 18.0866 18.4574 18.0287C18.7484 17.9708 19.05 18.0005 19.3241 18.114C19.5982 18.2276 19.8324 18.4198 19.9972 18.6665C20.1621 18.9132 20.25 19.2032 20.25 19.4999C20.25 19.8977 20.092 20.2792 19.8107 20.5605C19.5294 20.8418 19.1479 20.9999 18.75 20.9999Z" fill="#FCFCFC"/>
</svg>
