<svg width="33" height="44" viewBox="0 0 33 44" fill="none" xmlns="http://www.w3.org/2000/svg">
<path d="M27.0005 10C27.5528 10 28.0005 9.55228 28.0005 9C28.0005 8.44772 27.5528 8 27.0005 8C26.4482 8 26.0005 8.44772 26.0005 9C26.0005 9.55228 26.4482 10 27.0005 10Z" stroke="#095BA8" stroke-width="4" stroke-linecap="round" stroke-linejoin="round"/>
<path d="M30.0005 18H30.0205M8.00049 2H22.0005M12.0005 2V10" stroke="#095BA8" stroke-width="4" stroke-linecap="round" stroke-linejoin="round"/>
<path d="M14.0005 10H10.0005C8.89592 10 8.00049 10.8954 8.00049 12V16C8.00049 17.1046 8.89592 18 10.0005 18H14.0005C15.1051 18 16.0005 17.1046 16.0005 16V12C16.0005 10.8954 15.1051 10 14.0005 10Z" stroke="#095BA8" stroke-width="4" stroke-linecap="round" stroke-linejoin="round"/>
<path d="M8.00049 18C4.60049 18 2.00049 20.6 2.00049 24V38C2.00049 39.0609 2.42192 40.0783 3.17206 40.8284C3.92221 41.5786 4.93962 42 6.00049 42H18.0005C19.0614 42 20.0788 41.5786 20.8289 40.8284C21.5791 40.0783 22.0005 39.0609 22.0005 38V24C22.0005 20.6 19.4005 18 16.0005 18H8.00049Z" stroke="#095BA8" stroke-width="4" stroke-linecap="round" stroke-linejoin="round"/>
<path d="M2.00049 27C3.5693 26.2809 5.27474 25.9087 7.00049 25.9087C8.72624 25.9087 10.4317 26.2809 12.0005 27C12.0005 27 16.0005 29.5 22.0005 27" stroke="#095BA8" stroke-width="4" stroke-linecap="round" stroke-linejoin="round"/>
</svg>
