<svg width="24" height="24" viewBox="0 0 24 24" fill="none" xmlns="http://www.w3.org/2000/svg">
<path d="M14.5 16.5004C14.7586 16.5004 14.9838 16.5908 15.1963 16.8031C15.4088 17.0156 15.5 17.2416 15.5 17.5004V18.5004C15.4999 18.7589 15.4087 18.9842 15.1963 19.1967C14.9838 19.4091 14.7586 19.5004 14.5 19.5004H12V21.2504C11.9999 21.3455 11.9737 21.3937 11.9336 21.434C11.8934 21.4742 11.8457 21.5006 11.752 21.5004C11.6563 21.5001 11.6064 21.4737 11.5654 21.433C11.5259 21.3937 11.5001 21.3457 11.5 21.2504V16.7504C11.5 16.655 11.5261 16.6071 11.5654 16.5677C11.596 16.5373 11.6316 16.5147 11.6875 16.5052L11.752 16.5004H14.5ZM21.252 16.5004C21.345 16.5002 21.3932 16.5254 21.4346 16.5668C21.4757 16.608 21.5005 16.6552 21.5 16.7465V21.2504C21.4999 21.3455 21.4737 21.3937 21.4336 21.434C21.3934 21.4742 21.3457 21.5006 21.252 21.5004C21.1563 21.5001 21.1064 21.4737 21.0654 21.433C21.0259 21.3937 21.0001 21.3457 21 21.2504V19.0004H18V21.2504C17.9999 21.3455 17.9737 21.3937 17.9336 21.434C17.8934 21.4742 17.8457 21.5006 17.752 21.5004C17.6563 21.5001 17.6064 21.4737 17.5654 21.433C17.5259 21.3937 17.5001 21.3457 17.5 21.2504V16.7504C17.5 16.655 17.5261 16.6071 17.5654 16.5677C17.6064 16.527 17.6563 16.5007 17.752 16.5004C17.845 16.5002 17.8932 16.5254 17.9346 16.5668C17.9757 16.608 18.0005 16.6552 18 16.7465V18.5004H21V16.7504C21 16.655 21.0261 16.6071 21.0654 16.5677C21.1064 16.527 21.1563 16.5007 21.252 16.5004ZM9.99707 2.84998H10C10.0804 2.84998 10.1391 2.86249 10.1826 2.87927C10.2091 2.8895 10.2368 2.903 10.2656 2.92029L10.3555 2.98474C11.0781 3.62564 11.8346 4.33289 12.625 5.10681C13.4092 5.87471 14.1409 6.69195 14.8193 7.55798C15.4932 8.41815 16.0767 9.31806 16.5703 10.2572C17.0515 11.1729 17.344 12.1057 17.4531 13.057V13.058C17.4696 13.1983 17.436 13.2821 17.3584 13.3597C17.2647 13.4533 17.1566 13.5007 17.001 13.5004C16.844 13.5 16.7348 13.4516 16.6406 13.3578C16.5548 13.2723 16.4909 13.171 16.4502 13.0463L16.417 12.9135C16.3093 12.2697 16.1175 11.655 15.8398 11.0717C15.5714 10.5077 15.2551 9.95041 14.8926 9.39978C14.3771 8.60968 13.7415 7.78682 12.9883 6.93201C12.2321 6.07386 11.347 5.18959 10.335 4.27869L9.99707 3.97498L9.66211 4.28162C7.66117 6.11444 6.13324 7.821 5.09473 9.40076C4.05882 10.9767 3.50074 12.4483 3.5 13.8002C3.50003 15.2583 3.87965 16.5727 4.64648 17.7269C5.42128 18.8931 6.52727 19.7076 7.9375 20.1732C8.25665 20.2846 8.36406 20.4068 8.39941 20.4799C8.47427 20.6351 8.4845 20.7595 8.46094 20.8695C8.43378 20.9959 8.37269 21.105 8.2627 21.2054C8.21192 21.2518 8.17369 21.2677 8.08008 21.2426L7.95312 21.7133L8.08008 21.2416L8.06738 21.2386L7.74219 21.1537C6.14241 20.7011 4.89698 19.8326 3.98242 18.5482C2.99531 17.1619 2.50003 15.5846 2.5 13.8002C2.5 12.8115 2.72342 11.8194 3.17969 10.8207C3.64706 9.79761 4.23623 8.81657 4.94824 7.87732C5.66732 6.92878 6.44831 6.03802 7.29004 5.20544C8.14081 4.36393 8.92682 3.62187 9.64941 2.97986C9.71065 2.92956 9.76734 2.89801 9.81836 2.8783C9.86114 2.86178 9.91858 2.84963 9.99707 2.84998ZM12 19.0004H15V17.0004H12V19.0004Z" fill="#737373" stroke="#095BA8"/>
</svg>
