<svg width="24" height="24" viewBox="0 0 24 24" fill="none" xmlns="http://www.w3.org/2000/svg">
<rect x="0.25" y="0.25" width="15.5" height="15.5" rx="3.75" fill="#FCFCFC"/>
<rect x="0.25" y="0.25" width="15.5" height="15.5" rx="3.75" stroke="#00A0DC" stroke-width="0.5"/>
<path d="M3.39434 11L5.61034 5.4H6.76234L8.96234 11H7.58634L6.53034 8.16C6.48768 8.048 6.44501 7.928 6.40234 7.8C6.35968 7.672 6.31701 7.54133 6.27434 7.408C6.23168 7.26933 6.18901 7.136 6.14634 7.008C6.10901 6.87467 6.07701 6.752 6.05034 6.64L6.29034 6.632C6.25834 6.76533 6.22101 6.896 6.17834 7.024C6.14101 7.152 6.10101 7.28 6.05834 7.408C6.02101 7.53067 5.97834 7.656 5.93034 7.784C5.88234 7.90667 5.83701 8.03467 5.79434 8.168L4.73834 11H3.39434ZM4.45034 9.928L4.87434 8.904H7.45034L7.86634 9.928H4.45034ZM9.52503 11V6.752H10.741L10.797 8.136L10.557 7.872C10.621 7.64267 10.725 7.43733 10.869 7.256C11.0184 7.07467 11.1917 6.93067 11.389 6.824C11.5864 6.71733 11.797 6.664 12.021 6.664C12.117 6.664 12.205 6.672 12.285 6.688C12.3704 6.704 12.4477 6.72267 12.517 6.744L12.165 8.16C12.1064 8.12267 12.0264 8.09333 11.925 8.072C11.829 8.04533 11.7277 8.032 11.621 8.032C11.5037 8.032 11.3944 8.05333 11.293 8.096C11.1917 8.13333 11.1064 8.18933 11.037 8.264C10.9677 8.33867 10.9117 8.42667 10.869 8.528C10.8317 8.62933 10.813 8.744 10.813 8.872V11H9.52503Z" fill="#00A0DC"/>
<rect x="8.25" y="8.25" width="15.5" height="15.5" rx="3.75" fill="#00A0DC"/>
<rect x="8.25" y="8.25" width="15.5" height="15.5" rx="3.75" stroke="#FCFCFC" stroke-width="0.5"/>
<path d="M10.8993 19V13.4H14.8033V14.56H12.2193V17.84H14.8833V19H10.8993ZM11.5393 16.704V15.6H14.4433V16.704H11.5393ZM16.0556 19V13.4H17.2716L20.2076 17.4L19.9436 17.36C19.9169 17.184 19.8956 17.016 19.8796 16.856C19.8636 16.696 19.8476 16.5387 19.8316 16.384C19.8209 16.2293 19.8102 16.072 19.7996 15.912C19.7942 15.752 19.7889 15.5787 19.7836 15.392C19.7836 15.2053 19.7836 15.0027 19.7836 14.784V13.4H21.1036V19H19.8716L16.8076 14.872L17.2156 14.928C17.2422 15.184 17.2636 15.4027 17.2796 15.584C17.3009 15.76 17.3169 15.9173 17.3276 16.056C17.3436 16.1947 17.3542 16.32 17.3596 16.432C17.3649 16.544 17.3676 16.656 17.3676 16.768C17.3729 16.8747 17.3756 16.9947 17.3756 17.128V19H16.0556Z" fill="#FCFCFC"/>
</svg>
