<svg width="24" height="24" viewBox="0 0 24 24" fill="none" xmlns="http://www.w3.org/2000/svg">
<path d="M7 16.3C9.2 16.3 11 14.47 11 12.25C11 11.09 10.43 9.99 9.29 9.06C8.15 8.13 7.29 6.75 7 5.3C6.71 6.75 5.86 8.14 4.71 9.06C3.56 9.98 3 11.1 3 12.25C3 14.47 4.8 16.3 7 16.3Z" stroke="#095BA8" stroke-width="2" stroke-linecap="round" stroke-linejoin="round"/>
<path d="M12.5598 6.6C13.2476 5.50112 13.7351 4.28904 13.9998 3.02C14.4998 5.52 15.9998 7.92 17.9998 9.52C19.9998 11.12 20.9998 13.02 20.9998 15.02C21.0056 16.4023 20.6007 17.7552 19.8366 18.9071C19.0726 20.059 17.9837 20.9581 16.708 21.4905C15.4323 22.0228 14.0273 22.1644 12.671 21.8973C11.3148 21.6301 10.0684 20.9663 9.08984 19.99" stroke="#095BA8" stroke-width="2" stroke-linecap="round" stroke-linejoin="round"/>
</svg>
