<svg width="20" height="20" viewBox="0 0 20 20" fill="none" xmlns="http://www.w3.org/2000/svg">
<path d="M18.9034 1.09656C18.5558 0.748891 18.1432 0.473103 17.689 0.284944C17.2348 0.0967841 16.748 -6.10352e-05 16.2564 -6.10352e-05C15.7648 -6.10352e-05 15.278 0.0967841 14.8238 0.284944C14.3697 0.473103 13.957 0.748891 13.6094 1.09656L2.36729 12.3392C1.83336 12.8734 1.45261 13.5413 1.26478 14.2729L0.0223219 19.1087C-0.0084893 19.229 -0.00738613 19.3553 0.0255224 19.4751C0.058431 19.5948 0.122007 19.7039 0.209972 19.7916C0.297938 19.8793 0.407251 19.9425 0.527117 19.975C0.646984 20.0076 0.773258 20.0082 0.893472 19.977L5.72764 18.7359C6.45938 18.5484 7.12725 18.1676 7.66131 17.6334L18.9034 6.3908C19.2511 6.0432 19.5269 5.63052 19.715 5.17632C19.9032 4.72212 20 4.23531 20 3.74368C20 3.25205 19.9032 2.76524 19.715 2.31104C19.5269 1.85684 19.2511 1.44416 18.9034 1.09656ZM14.6191 2.10628C15.0533 1.67201 15.6423 1.42804 16.2564 1.42804C16.8705 1.42804 17.4595 1.67201 17.8938 2.10628C18.328 2.54054 18.572 3.12954 18.572 3.74368C18.572 4.35783 18.328 4.94682 17.8938 5.38108L16.7812 6.49363L13.5066 3.21883L14.6191 2.10628ZM12.4969 4.22855L15.7716 7.50335L6.65163 16.6237C6.29799 16.9766 5.85608 17.2282 5.37204 17.352L1.70607 18.2946L2.64862 14.6285C2.77155 14.1441 3.02322 13.7019 3.37696 13.3489L12.4969 4.22855Z" fill="#303030"/>
</svg>
